 <svg  version="1.0" xmlns="http://www.w3.org/2000/svg"  width="900.000000pt" height="900.000000pt" viewBox="0 0 900.000000 900.000000"  preserveAspectRatio="xMidYMid meet">  <g transform="translate(0.000000,900.000000) scale(0.100000,-0.100000)" fill="#159d8d" stroke="none"> <path d="M6357 5168 c-8 -5 -14 -86 -18 -260 -7 -254 -12 -304 -42 -389 -39 -113 -131 -240 -225 -313 -70 -54 -202 -123 -282 -148 -30 -10 -82 -26 -115 -37 -39 -12 -59 -23 -57 -32 5 -18 173 -300 189 -317 11 -11 23 -12 66 -2 79 19 182 58 282 107 131 66 254 168 357 299 27 35 53 64 57 64 4 0 29 -30 56 -66 97 -133 225 -238 380 -312 123 -59 292 -111 314 -97 9 5 65 95 178 283 12 20 22 42 23 47 0 6 -30 18 -67 28 -38 10 -83 25 -101 33 -18 8 -37 14 -42 14 -10 0 -142 62 -175 83 -37 22 -155 118 -155 125 0 4 -17 26 -38 49 -50 57 -87 133 -127 263 -13 43 -18 112 -22 314 -5 226 -8 259 -22 263 -29 7 -403 8 -414 1z"/> <path d="M4380 5149 c-235 -18 -445 -123 -589 -295 -44 -52 -54 -68 -89 -139 -98 -197 -92 -450 14 -641 118 -213 322 -353 584 -400 445 -81 866 154 985 550 26 86 24 280 -4 369 -29 95 -68 174 -117 237 -181 236 -449 345 -784 319z m202 -384 c116 -27 213 -91 249 -167 46 -94 51 -113 47 -204 -5 -98 -17 -138 -64 -201 -79 -107 -185 -153 -348 -153 -142 1 -228 32 -310 115 -73 72 -89 120 -90 255 -1 104 2 119 24 160 29 55 134 160 158 160 10 0 22 4 28 10 15 15 124 38 186 39 31 1 85 -6 120 -14z"/> <path d="M1582 5088 c-17 -17 -17 -1339 0 -1356 9 -9 209 -12 839 -12 745 0 827 2 833 16 3 9 6 87 6 175 l0 159 -608 0 c-460 0 -611 3 -620 12 -9 9 -12 136 -12 509 l0 497 -22 6 c-45 12 -403 7 -416 -6z"/> </g> </svg> 